<svg xmlns="http://www.w3.org/2000/svg" viewBox="0 0 64 64" fill="none">
  <circle cx="32" cy="32" r="30" fill="#1a2f3a"/>
  <path d="M20 28c0-4 2-8 6-10s8-2 12 0 6 6 6 10c0 6-6 10-12 16C26 38 20 34 20 28z" fill="#5bbfa0" opacity="0.9"/>
  <circle cx="28" cy="26" r="2" fill="#f0e6d3"/>
  <circle cx="36" cy="26" r="2" fill="#f0e6d3"/>
  <path d="M28 32c0 0 2 3 4 3s4-3 4-3" stroke="#f0e6d3" stroke-width="1.5" stroke-linecap="round" fill="none"/>
  <path d="M17 20c-2-4-1-8 2-10" stroke="#a8c5da" stroke-width="1.5" stroke-linecap="round" fill="none"/>
  <path d="M47 20c2-4 1-8-2-10" stroke="#a8c5da" stroke-width="1.5" stroke-linecap="round" fill="none"/>
</svg>
